# xmcd
#
# Track frame offsets:
#	150
#	18600
#	37745
#	53820
#	71950
#	86295
#	107375
#	123037
#	138095
#	157060
#	168587
#	185525
#	200300
#	213987
#	232775
#	251067
#	272270
#	293700
#	310500
#	326530
#
# Disc length: 4608 seconds
#
# Revision: 4
# Processed by: cddbd v1.5.2PL0 Copyright (c) Steve Scherf et al.
# Submitted via: audiograbber 1.83.01
#
DISCID=0611fe14
DTITLE=Münchener Freiheit - Definitive Collection
DYEAR=2003
DGENRE=Rock
TTITLE0=Ohne Dich
TTITLE1=Liebe auf den ersten Blick
TTITLE2=Tausendmal du
TTITLE3=S.O.S.
TTITLE4=Herzschlag ist der Takt
TTITLE5=Es gibt kein nächstes Mal
TTITLE6=Herz aus Glas
TTITLE7=Oh, Baby
TTITLE8=Ich will dich nochmal
TTITLE9=Zeig mir die Nacht
TTITLE10=Bis wir uns wiedersehen
TTITLE11=Ich steh auf Licht
TTITLE12=Rumpelstilzchen
TTITLE13=Verlieben verlieren
TTITLE14=So heiß
TTITLE15=Komm zurück
TTITLE16=Viel zu viel
TTITLE17=Du bist Energie für mich
TTITLE18=Baby Blue
TTITLE19=Solange man Träume noch leben kann
EXTD=
EXTT0=
EXTT1=
EXTT2=
EXTT3=
EXTT4=
EXTT5=
EXTT6=
EXTT7=
EXTT8=
EXTT9=
EXTT10=
EXTT11=
EXTT12=
EXTT13=
EXTT14=
EXTT15=
EXTT16=
EXTT17=
EXTT18=
EXTT19=
PLAYORDER=
